M48
; DRILL file {KiCad (5.1.10)-1} date 01/11/23 00:11:55
; FORMAT={-:-/ absolute / inch / decimal}
; #@! TF.CreationDate,2023-01-11T00:11:55+01:00
; #@! TF.GenerationSoftware,Kicad,Pcbnew,(5.1.10)-1
; #@! TF.FileFunction,Plated,1,2,PTH
FMAT,2
INCH
T1C0.0157
T2C0.0394
%
G90
G05
T1
X0.825Y-1.9329
X0.8255Y-1.8055
X0.8375Y-0.8375
X0.8375Y-0.9375
X0.8925Y-1.0925
X0.905Y-1.9329
X0.9325Y-0.9375
X0.9375Y-0.8375
X0.985Y-1.9329
X0.9882Y-1.7848
X0.9955Y-1.4915
X1.005Y-1.26
X1.0075Y-0.825
X1.0075Y-0.9725
X1.0075Y-1.0325
X1.0075Y-1.1495
X1.01Y-0.9175
X1.016Y-1.3514
X1.0407Y-1.7899
X1.0475Y-1.8975
X1.0495Y-1.9515
X1.05Y-1.438
X1.09Y-1.7325
X1.105Y-1.26
X1.1213Y-1.6467
X1.1675Y-1.6095
X1.18Y-1.03
X1.18Y-1.315
X1.1915Y-1.9535
X1.1975Y-1.8575
X1.2Y-1.575
X1.2125Y-1.535
X1.2175Y-1.7475
X1.235Y-1.305
X1.2375Y-1.8875
X1.27Y-1.465
X1.275Y-1.715
X1.2875Y-1.51
X1.2875Y-1.8875
X1.31Y-0.8475
X1.3175Y-1.1225
X1.325Y-1.725
X1.3339Y-1.5059
X1.3375Y-1.8875
X1.3535Y-1.0235
X1.3769Y-1.3424
X1.3805Y-1.2635
X1.3835Y-1.1033
X1.385Y-1.725
X1.3966Y-1.3916
X1.4075Y-1.4525
X1.4155Y-1.6775
X1.4295Y-1.7535
X1.4315Y-1.7055
X1.4398Y-1.1098
X1.4525Y-1.2375
X1.4545Y-1.8189
X1.4575Y-1.33
X1.4575Y-1.4375
X1.4875Y-1.5975
X1.5035Y-0.9935
X1.5238Y-1.6324
X1.53Y-1.2875
X1.5375Y-1.4375
X1.5425Y-1.3425
X1.5499Y-1.6029
X1.5504Y-1.105
X1.5628Y-1.2325
X1.5671Y-1.5675
X1.5675Y-1.0675
X1.5775Y-1.3905
X1.6046Y-1.1178
X1.62Y-0.9775
X1.625Y-1.03
X1.6275Y-1.8565
X1.6425Y-1.1375
X1.6429Y-1.4925
X1.6775Y-1.6775
X1.6815Y-1.5775
X1.6835Y-1.5055
X1.7155Y-1.3455
X1.7155Y-1.3835
X1.7375Y-0.9975
X1.7376Y-1.1426
X1.775Y-1.325
X1.775Y-1.375
X1.775Y-1.425
X1.775Y-1.475
X1.795Y-0.98
X1.8Y-1.838
X1.8075Y-1.5775
X1.81Y-1.215
X1.825Y-1.325
X1.825Y-1.375
X1.825Y-1.425
X1.825Y-1.475
X1.8475Y-0.9675
X1.8475Y-1.9555
X1.8625Y-1.6875
X1.8625Y-1.7375
X1.8625Y-1.7875
X1.8875Y-0.8375
X1.89Y-1.0275
X1.8935Y-1.9555
X1.9255Y-1.6435
X1.9415Y-1.9555
X1.9575Y-0.9975
X1.9625Y-1.6875
X1.9625Y-1.7375
X1.9625Y-1.7875
X1.9875Y-0.8375
X1.9977Y-1.6273
X2.0301Y-1.1426
X2.0875Y-0.8375
X2.1875Y-1.1375
X2.2375Y-0.8375
X2.2375Y-1.1375
X2.3175Y-0.8375
X2.4075Y-0.8375
X2.4075Y-1.0375
X2.4075Y-1.1375
X2.4075Y-1.2375
X2.4075Y-1.3375
X2.4075Y-1.4375
X2.4075Y-1.5375
X2.4075Y-1.6375
X2.4075Y-1.7375
X2.4075Y-1.8375
X2.4075Y-1.9375
T2
X0.8374Y-1.0386
X0.8374Y-1.1386
X0.8374Y-1.2386
X0.8374Y-1.3386
X0.8374Y-1.4386
X0.8374Y-1.5386
X0.8374Y-1.6386
X0.8374Y-1.7386
X0.9374Y-1.0386
X0.9374Y-1.1386
X0.9374Y-1.2386
X0.9374Y-1.3386
X0.9374Y-1.4386
X0.9374Y-1.5386
X0.9374Y-1.6386
X0.9374Y-1.7386
X1.13Y-0.88
X1.13Y-0.98
X1.13Y-1.08
X1.23Y-0.88
X1.23Y-0.98
X1.23Y-1.08
X1.6795Y-0.88
X1.6795Y-0.98
X2.3024Y-1.0362
X2.3024Y-1.1362
X2.3024Y-1.2362
X2.3024Y-1.3362
X2.3024Y-1.4362
X2.3024Y-1.5362
X2.3024Y-1.6362
X2.3024Y-1.7362
T0
M30
